<svg xmlns="http://www.w3.org/2000/svg" width="72" height="72"><g fill="none" fill-rule="evenodd"><path fill="#F1F3F5" d="M-16-316h360v640H-16z"/><path fill="#FFF" fill-rule="nonzero" d="M0 0h72v72H0z"/><g fill-rule="nonzero"><path fill="#EDEDED" d="M4 16h21v52H4z"/><path fill="#DDD" d="M7 29.5h15v2H7zM7 25h15v2H7zm0-4h15v2H7zm0 13h15v2H7zm0 4.5h15v2H7zM7 43h15v2H7zm0 4.5h15v2H7zM7 52h15v2H7zm0 4.5h15v2H7zM7 61h15v2H7zM25 16h15v52H25z"/><path fill="#C6C6C6" d="M28 29.5h9v2h-9zm0-4.5h9v2h-9zm0-4h9v2h-9zm0 13h9v2h-9zm0 4.5h9v2h-9zm0 4.5h9v2h-9zm0 4.5h9v2h-9zm0 4.5h9v2h-9zm0 4.5h9v2h-9zm0 4.5h9v2h-9z"/></g><g fill-rule="nonzero"><path fill="#EDEDED" d="M34 30h19v38H34z"/><path fill="#DDD" d="M37 35h13v2H37zm0 4.667h13v2H37zm0 4.666h13v2H37zM37 49h13v2H37zm0 4.667h13v2H37zm0 4.666h13v2H37zM37 63h13v2H37zM53 30h15v38H53z"/><path fill="#C6C6C6" d="M56 35h9v2h-9zm0 4.667h9v2h-9zm0 4.666h9v2h-9zM56 49h9v2h-9zm0 4.667h9v2h-9zm0 4.666h9v2h-9zM56 63h9v2h-9z"/></g><path fill="#2874F0" fill-rule="nonzero" d="M46 4h19a3 3 0 0 1 3 3v9.895a3 3 0 0 1-3 3H46a3 3 0 0 1-3-3V7a3 3 0 0 1 3-3z"/><path fill="#FFE000" d="M52 16.333h7V10.5h-7z"/><path stroke="#FFE000" d="M55.5 14a2.334 2.334 0 0 1-2.333-2.333V9.333a2.334 2.334 0 0 1 4.666 0v2.334A2.334 2.334 0 0 1 55.5 14z"/><path fill="#2874F0" fill-rule="nonzero" d="M55.5 24l5.5-7H50z"/></g></svg>